<svg width="28" height="20" viewBox="0 0 28 20" fill="none" xmlns="http://www.w3.org/2000/svg" xmlns:xlink="http://www.w3.org/1999/xlink">
<path d="M18.479,19.634L26.98,11.134C27.207,10.906 27.335,10.597 27.335,10.275C27.335,9.953 27.207,9.644 26.98,9.417L18.479,0.917C18.25,0.695 17.944,0.573 17.625,0.576C17.307,0.579 17.002,0.706 16.777,0.931C16.552,1.157 16.424,1.461 16.422,1.78C16.419,2.098 16.541,2.405 16.762,2.634L23.19,9.061L1.835,9.061C1.513,9.061 1.204,9.189 0.977,9.417C0.749,9.644 0.621,9.953 0.621,10.275C0.621,10.597 0.749,10.906 0.977,11.134C1.204,11.361 1.513,11.489 1.835,11.489L23.19,11.489L16.762,17.917C16.541,18.146 16.419,18.452 16.422,18.771C16.424,19.089 16.552,19.394 16.777,19.619C17.002,19.844 17.307,19.972 17.625,19.974C17.944,19.977 18.25,19.855 18.479,19.634Z" transform="rotate(0 13.978 10.275)" fill="#171A1F"/>
</svg>
