<svg width="20" height="20" viewBox="0 0 20 20" fill="none" xmlns="http://www.w3.org/2000/svg" xmlns:xlink="http://www.w3.org/1999/xlink">
<path d="M8.978,-0.475C7.05,-0.475 5.165,0.097 3.561,1.168C1.958,2.24 0.708,3.762 -0.03,5.544C-0.768,7.326 -0.961,9.286 -0.585,11.177C-0.208,13.069 0.72,14.806 2.084,16.169C3.447,17.533 5.185,18.462 7.076,18.838C8.967,19.214 10.928,19.021 12.709,18.283C14.491,17.545 16.014,16.295 17.085,14.692C18.156,13.089 18.728,11.204 18.728,9.275C18.725,6.69 17.697,4.212 15.869,2.384C14.041,0.556 11.563,-0.472 8.978,-0.475ZM10.103,13.775C10.103,13.974 10.024,14.165 9.883,14.305C9.743,14.446 9.552,14.525 9.353,14.525C9.154,14.525 8.963,14.446 8.823,14.305C8.682,14.165 8.603,13.974 8.603,13.775L8.603,6.181L7.519,6.904C7.437,6.959 7.345,6.997 7.249,7.016C7.152,7.035 7.052,7.035 6.956,7.016C6.859,6.996 6.767,6.958 6.685,6.903C6.604,6.849 6.533,6.778 6.479,6.696C6.424,6.614 6.386,6.522 6.367,6.425C6.348,6.329 6.348,6.229 6.367,6.133C6.387,6.036 6.425,5.944 6.48,5.862C6.534,5.78 6.605,5.71 6.687,5.655L8.937,4.155C9.049,4.08 9.18,4.037 9.316,4.03C9.451,4.024 9.585,4.053 9.705,4.117C9.825,4.181 9.925,4.275 9.995,4.391C10.065,4.507 10.102,4.64 10.103,4.775L10.103,13.775Z" transform="rotate(0 8.978 9.275)" fill="#9095A1"/>
</svg>
