<svg width="20" height="20" viewBox="0 0 20 20" fill="none" xmlns="http://www.w3.org/2000/svg" xmlns:xlink="http://www.w3.org/1999/xlink">
<path d="M8.978,-0.475C7.05,-0.475 5.165,0.097 3.561,1.168C1.958,2.24 0.708,3.762 -0.03,5.544C-0.768,7.326 -0.961,9.286 -0.585,11.177C-0.208,13.069 0.72,14.806 2.084,16.169C3.447,17.533 5.185,18.462 7.076,18.838C8.967,19.214 10.928,19.021 12.709,18.283C14.491,17.545 16.014,16.295 17.085,14.692C18.156,13.089 18.728,11.204 18.728,9.275C18.725,6.69 17.697,4.212 15.869,2.384C14.041,0.556 11.563,-0.472 8.978,-0.475ZM8.603,14.9C8.154,14.902 7.709,14.813 7.295,14.638C6.881,14.464 6.506,14.209 6.193,13.887C6.119,13.817 6.061,13.734 6.021,13.641C5.98,13.549 5.959,13.449 5.958,13.348C5.957,13.248 5.977,13.148 6.015,13.054C6.054,12.961 6.111,12.877 6.183,12.806C6.255,12.736 6.341,12.68 6.435,12.643C6.529,12.607 6.629,12.589 6.73,12.592C6.831,12.595 6.93,12.618 7.022,12.661C7.113,12.703 7.196,12.763 7.263,12.838C7.48,13.058 7.747,13.222 8.042,13.315C8.337,13.407 8.651,13.425 8.954,13.367C9.258,13.309 9.542,13.177 9.783,12.982C10.023,12.788 10.211,12.537 10.331,12.252C10.451,11.967 10.498,11.657 10.469,11.349C10.44,11.041 10.335,10.745 10.164,10.488C9.993,10.23 9.761,10.019 9.489,9.873C9.216,9.727 8.912,9.65 8.603,9.65C8.466,9.65 8.331,9.612 8.214,9.541C8.097,9.47 8.001,9.368 7.938,9.246C7.875,9.125 7.846,8.988 7.855,8.851C7.864,8.714 7.91,8.582 7.989,8.47L9.787,5.9L6.728,5.9C6.529,5.9 6.338,5.821 6.198,5.68C6.057,5.54 5.978,5.349 5.978,5.15C5.978,4.951 6.057,4.76 6.198,4.62C6.338,4.479 6.529,4.4 6.728,4.4L11.228,4.4C11.365,4.4 11.5,4.438 11.617,4.509C11.734,4.58 11.83,4.682 11.893,4.804C11.956,4.926 11.985,5.062 11.976,5.199C11.967,5.336 11.921,5.468 11.842,5.58L9.873,8.393C10.602,8.685 11.206,9.223 11.581,9.912C11.956,10.602 12.079,11.401 11.929,12.172C11.778,12.942 11.364,13.637 10.757,14.135C10.15,14.633 9.388,14.903 8.603,14.9Z" transform="rotate(0 8.978 9.275)" fill="#9095A1"/>
</svg>
